<?xml version="1.0" encoding="utf-8"?>
<svg viewBox="0 0 500 410" xmlns="http://www.w3.org/2000/svg">
  <path d="M 0.722 410.366 L 0.722 304.1 C 0.722 304.1 14.701 313.865 23.445 318.75 C 30.869 322.897 42.814 329.835 51.37 330.183 C 66.518 330.798 72.027 329.213 86.49 324.799 C 98.789 321.045 114.172 311.55 127.062 311.828 C 137.019 312.043 151.963 316.443 158.126 324.041 C 164.807 332.278 166.147 340.974 166.853 351.437 C 167.605 362.562 167.939 373.528 162.98 383.583 C 158.132 393.411 136.252 402.668 125.072 403.604 C 109.544 404.904 101.622 396.295 86.778 391.681 C 71.453 386.917 55.494 388.147 55.494 388.147 C 55.494 388.147 36.399 389.058 28.668 393.418 C 20.225 398.18 0.722 410.366 0.722 410.366 Z" style="fill: rgb(61, 92, 165);"/>
  <path d="M 160.156 354.335 L 235.6 353.369 L 213.636 248.068 L 493.448 278.016" style="fill: none; stroke: rgb(61, 92, 165); stroke-width: 15; stroke-linecap: round; stroke-linejoin: round;"/>
  <path d="M 442.246 1.933 L 363.029 97.95 L 499.244 62.065 C 499.244 62.065 450.638 150.598 407.468 168.752 C 366.393 186.025 303.096 194 274.152 160.022 C 246.411 127.456 257.084 63.753 285.744 31.999 C 321.408 -7.515 442.246 1.933 442.246 1.933 Z" style="fill: rgb(61, 92, 165);"/>
  <path d="M 302.167 169.817 L 294.439 209.425 L 311.828 276.084" style="fill: none; stroke: rgb(61, 92, 165); stroke-linecap: round; stroke-linejoin: round; stroke-width: 8;"/>
  <path d="M 294.405 209.391 L 270.253 274.118" style="fill: none; stroke: rgb(61, 92, 165); stroke-width: 8; stroke-linecap: round; stroke-linejoin: round;"/>
  <path d="M 255.796 270.287 L 278.982 251.932 L 285.744 275.118" style="fill: none; stroke: rgb(61, 92, 165); stroke-width: 8; stroke-linecap: round; stroke-linejoin: round;"/>
  <path d="M 292.853 273.043 L 309.586 255.503 L 326.177 277.661" style="fill: none; stroke: rgb(61, 92, 165); stroke-width: 8; stroke-linecap: round; stroke-linejoin: round;" transform="matrix(0.959559, -0.281507, 0.281507, 0.959559, -62.527648, 97.911424)"/>
</svg>