<?xml version="1.0" encoding="utf-8"?>
<svg viewBox="0 0 500 410" xmlns="http://www.w3.org/2000/svg" xmlns:bx="https://boxy-svg.com">
  <path d="M 1.722 409.267 L 82.813 129.407 C 82.813 129.407 165.13 109.555 206.96 117.59 C 232.661 122.526 272.404 167.103 272.404 167.103 L 211.872 409.267 C 211.872 409.267 172.143 377.793 135.438 378.426 C 92.317 379.17 1.722 409.267 1.722 409.267 Z" style="stroke: black; fill: rgb(14, 30, 87);"/>
  <path d="M 226.147 406.056 L 284.396 168.459 C 284.396 168.459 341.969 128.619 403.975 126.944 C 429.67 126.249 496.829 163.892 496.829 163.892 L 436.297 406.056 C 436.297 406.056 348.599 374.582 311.894 375.215 C 268.773 375.958 226.147 406.056 226.147 406.056 Z" style="stroke: black; fill: rgb(14, 30, 87);"/>
  <path d="M 35.986 409.267 C 35.986 408.125 97.684 391.538 137.634 392.133 C 156.173 392.408 190.172 409.267 190.172 409.267 L 35.986 409.267 Z" style="stroke: black; fill: rgb(1, 14, 87);"/>
  <path d="M 248.989 410.136 C 248.989 408.994 274.14 390.122 314.09 390.717 C 332.629 390.993 403.176 410.136 403.176 410.136 L 248.989 410.136 Z" style="stroke: black; fill: rgb(1, 14, 87);"/>
  <path d="M 147.336 282.601 L 186.297 344.725 L 108.375 344.725 L 147.336 282.601 Z" style="fill: rgb(242, 188, 80);" transform="matrix(0.964191, -0.265209, 0.118594, 1.004519, -14.072728, 7.863556)" bx:shape="triangle 108.375 282.601 77.922 62.124 0.5 0 1@40087fb1"/>
  <rect x="177.215" y="312.869" width="380.059" height="67.784" style="fill: rgb(242, 188, 80);" transform="matrix(0.754314, -0.656513, 0.656513, 0.754315, -170.232673, 128.728887)"/>
</svg>